<?xml version="1.0"?>
<!DOCTYPE svg PUBLIC "-//W3C//DTD SVG 1.1//EN" "http://www.w3.org/Graphics/SVG/1.1/DTD/svg11.dtd">
<svg width="142.8mm" height="27.8mm" viewBox="0 0 142.8 27.8" xmlns="http://www.w3.org/2000/svg" version="1.1">
<g transform="translate(71.4,15.3) scale(1,-1)">
<path id="Sketch" d="M -68.0 12.5 L 68.0 12.5 A 2.0 2.0 0 0 0 70.0 10.5 L 70.0 -10.5 A 2.0 2.0 0 0 0 68.0 -12.5 L -68.0 -12.5 A 2.0 2.0 0 0 0 -70.0 -10.5 L -70.0 10.5 A 2.0 2.0 0 0 0 -68.0 12.5 " stroke="#000000" stroke-width="0.35 px" style="stroke-width:0.35;stroke-miterlimit:4;stroke-dasharray:none;fill:none"/>
<circle cx="-43.85" cy="3.5" r="4.21" stroke="#000000" stroke-width="0.35 px" style="stroke-width:0.35;stroke-miterlimit:4;stroke-dasharray:none;fill:none"/>
<circle cx="-26.31" cy="3.5" r="4.21" stroke="#000000" stroke-width="0.35 px" style="stroke-width:0.35;stroke-miterlimit:4;stroke-dasharray:none;fill:none"/>
<circle cx="-8.77" cy="3.5" r="4.21" stroke="#000000" stroke-width="0.35 px" style="stroke-width:0.35;stroke-miterlimit:4;stroke-dasharray:none;fill:none"/>
<circle cx="8.77" cy="3.5" r="4.21" stroke="#000000" stroke-width="0.35 px" style="stroke-width:0.35;stroke-miterlimit:4;stroke-dasharray:none;fill:none"/>
<circle cx="26.31" cy="3.5" r="4.21" stroke="#000000" stroke-width="0.35 px" style="stroke-width:0.35;stroke-miterlimit:4;stroke-dasharray:none;fill:none"/>
<circle cx="43.85" cy="3.5" r="4.21" stroke="#000000" stroke-width="0.35 px" style="stroke-width:0.35;stroke-miterlimit:4;stroke-dasharray:none;fill:none"/>
<circle cx="-66.5" cy="0.0" r="1.473" stroke="#000000" stroke-width="0.35 px" style="stroke-width:0.35;stroke-miterlimit:4;stroke-dasharray:none;fill:none"/>
<circle cx="66.5" cy="0.0" r="1.473" stroke="#000000" stroke-width="0.35 px" style="stroke-width:0.35;stroke-miterlimit:4;stroke-dasharray:none;fill:none"/>
<path id="Sketch" d="M -61.25 1.5 L -55.25 1.5 L -55.25 -6.5 L -61.25 -6.5 L -61.25 1.5 " stroke="#000000" stroke-width="0.35 px" style="stroke-width:0.35;stroke-miterlimit:4;stroke-dasharray:none;fill:none"/>
<path id="Sketch" d="M 55.25 1.5 L 61.25 1.5 L 61.25 -6.5 L 55.25 -6.5 L 55.25 1.5 " stroke="#000000" stroke-width="0.35 px" style="stroke-width:0.35;stroke-miterlimit:4;stroke-dasharray:none;fill:none"/>
</g>
</svg>