<?xml version="1.0"?>
<!DOCTYPE svg PUBLIC "-//W3C//DTD SVG 1.1//EN" "http://www.w3.org/Graphics/SVG/1.1/DTD/svg11.dtd">
<svg width="142.8mm" height="27.8mm" viewBox="0 0 142.8 27.8" xmlns="http://www.w3.org/2000/svg" version="1.1">
<g transform="translate(71.4,15.3) scale(1,-1)">
<path id="Sketch" d="M -51.4277236015 4.62500014575 L -44.7160252916 -6.99999630759 A 1.0 1.0 0 0 1 -42.9839747084 -6.99999630759 L -36.2722763985 4.62500014575 A 0.75 0.75 0 0 0 -35.6227574298 5.0 L -34.5372425702 5.0 A 0.75 0.75 0 0 0 -33.8877236015 4.62500014575 L -27.1760252916 -6.99999630759 A 1.0 1.0 0 0 1 -25.4439747084 -6.99999630759 L -18.7322763985 4.62500014575 A 0.75 0.75 0 0 0 -18.0827574298 5.0 L -16.9972425702 5.0 A 0.75 0.75 0 0 0 -16.3477236015 4.62500014575 L -9.63602529158 -6.99999630759 A 1.0 1.0 0 0 1 -7.90397470842 -6.99999630759 L -1.19227639853 4.62500014575 A 0.75 0.75 0 0 0 -0.542757429838 5.0 L 0.542757429838 5.0 A 0.75 0.75 0 0 0 1.19227639853 4.62500014575 L 7.90397470842 -6.99999630759 A 1.0 1.0 0 0 1 9.63602529158 -6.99999630759 L 16.3477236015 4.62500014575 A 0.75 0.75 0 0 0 16.9972425702 5.0 L 18.0827574298 5.0 A 0.75 0.75 0 0 0 18.7322763985 4.62500014575 L 25.4439747084 -6.99999630759 A 1.0 1.0 0 0 1 27.1760252916 -6.99999630759 L 33.8877236015 4.62500014575 A 0.75 0.75 0 0 0 34.5372425702 5.0 L 35.6227574298 5.0 A 0.75 0.75 0 0 0 36.2722763985 4.62500014575 L 42.9839747084 -6.99999630759 A 1.0 1.0 0 0 1 44.7160252916 -6.99999630759 L 51.4277236015 4.62500014575 A 0.75 0.75 0 0 0 52.0772425702 5.0 L 54.5 5.0 A 0.75 0.75 0 0 1 55.25 5.75 L 55.25 11.75 A 0.75 0.75 0 0 0 56.0 12.5 L 68.0 12.5 A 2.0 2.0 0 0 0 70.0 10.5 L 70.0 -10.5 A 2.0 2.0 0 0 0 68.0 -12.5 L -68.0 -12.5 A 2.0 2.0 0 0 0 -70.0 -10.5 L -70.0 10.5 A 2.0 2.0 0 0 0 -68.0 12.5 L -56.0 12.5 A 0.75 0.75 0 0 0 -55.25 11.75 L -55.25 5.75 A 0.75 0.75 0 0 1 -54.5 5.0 L -52.0772425702 5.0 A 0.75 0.75 0 0 0 -51.4277236015 4.62500014575 " stroke="#000000" stroke-width="0.35 px" style="stroke-width:0.35;stroke-miterlimit:4;stroke-dasharray:none;fill:none"/>
<path id="Sketch" d="M -61.250758 1.5 L -55.25 1.5 L -55.25 -6.5 L -61.250758 -6.5 L -61.250758 1.5 " stroke="#000000" stroke-width="0.35 px" style="stroke-width:0.35;stroke-miterlimit:4;stroke-dasharray:none;fill:none"/>
<path id="Sketch" d="M 55.25 1.5 L 61.250758 1.5 L 61.250758 -6.5 L 55.25 -6.5 L 55.25 1.5 " stroke="#000000" stroke-width="0.35 px" style="stroke-width:0.35;stroke-miterlimit:4;stroke-dasharray:none;fill:none"/>
<circle cx="-66.5" cy="0.0" r="1.473" stroke="#000000" stroke-width="0.35 px" style="stroke-width:0.35;stroke-miterlimit:4;stroke-dasharray:none;fill:none"/>
<circle cx="66.5" cy="-3.10041310652e-15" r="1.473" stroke="#000000" stroke-width="0.35 px" style="stroke-width:0.35;stroke-miterlimit:4;stroke-dasharray:none;fill:none"/>
</g>
</svg>