<?xml version="1.0"?>
<!DOCTYPE svg PUBLIC "-//W3C//DTD SVG 1.1//EN" "http://www.w3.org/Graphics/SVG/1.1/DTD/svg11.dtd">
<svg width="142.8mm" height="27.8mm" viewBox="0 0 142.8 27.8" xmlns="http://www.w3.org/2000/svg" version="1.1">
<g transform="translate(71.4,15.3) scale(1,-1)">
<path id="Sketch" d="M -49.0028521567 4.62500014575 L -44.7160252916 -2.79999794002 A 1.0 1.0 0 0 1 -42.9839747084 -2.79999794002 L -38.6971478433 4.62500014575 A 0.75 0.75 0 0 0 -38.0476288746 5.0 L -32.1123711254 5.0 A 0.75 0.75 0 0 0 -31.4628521567 4.62500014575 L -27.1760252916 -2.79999794002 A 1.0 1.0 0 0 1 -25.4439747084 -2.79999794002 L -21.1571478433 4.62500014575 A 0.75 0.75 0 0 0 -20.5076288746 5.0 L -14.5723711254 5.0 A 0.75 0.75 0 0 0 -13.9228521567 4.62500014575 L -9.63602529158 -2.79999794002 A 1.0 1.0 0 0 1 -7.90397470842 -2.79999794002 L -3.61714784328 4.62500014575 A 0.75 0.75 0 0 0 -2.9676288746 5.0 L 2.9676288746 5.0 A 0.75 0.75 0 0 0 3.61714784328 4.62500014575 L 7.90397470842 -2.79999794002 A 1.0 1.0 0 0 1 9.63602529158 -2.79999794002 L 13.9228521567 4.62500014575 A 0.75 0.75 0 0 0 14.5723711254 5.0 L 20.5076288746 5.0 A 0.75 0.75 0 0 0 21.1571478433 4.62500014575 L 25.4439747084 -2.79999794002 A 1.0 1.0 0 0 1 27.1760252916 -2.79999794002 L 31.4628521567 4.62500014575 A 0.75 0.75 0 0 0 32.1123711254 5.0 L 38.0476288746 5.0 A 0.75 0.75 0 0 0 38.6971478433 4.62500014575 L 42.9839747084 -2.79999794002 A 1.0 1.0 0 0 1 44.7160252916 -2.79999794002 L 49.0028521567 4.62500014575 A 0.75 0.75 0 0 0 49.6523711254 5.0 L 54.5 5.0 A 0.75 0.75 0 0 1 55.25 5.75 L 55.25 11.75 A 0.75 0.75 0 0 0 56.0 12.5 L 68.0 12.5 A 2.0 2.0 0 0 0 70.0 10.5 L 70.0 -10.5 A 2.0 2.0 0 0 0 68.0 -12.5 L -68.0 -12.5 A 2.0 2.0 0 0 0 -70.0 -10.5 L -70.0 10.5 A 2.0 2.0 0 0 0 -68.0 12.5 L -56.0 12.5 A 0.75 0.75 0 0 0 -55.25 11.75 L -55.25 5.75 A 0.75 0.75 0 0 1 -54.5 5.0 L -49.6523711254 5.0 A 0.75 0.75 0 0 0 -49.0028521567 4.62500014575 " stroke="#000000" stroke-width="0.35 px" style="stroke-width:0.35;stroke-miterlimit:4;stroke-dasharray:none;fill:none"/>
<path id="Sketch" d="M -61.250758 1.5 L -55.25 1.5 L -55.25 -6.5 L -61.250758 -6.5 L -61.250758 1.5 " stroke="#000000" stroke-width="0.35 px" style="stroke-width:0.35;stroke-miterlimit:4;stroke-dasharray:none;fill:none"/>
<path id="Sketch" d="M 55.25 1.5 L 61.250758 1.5 L 61.250758 -6.5 L 55.25 -6.5 L 55.25 1.5 " stroke="#000000" stroke-width="0.35 px" style="stroke-width:0.35;stroke-miterlimit:4;stroke-dasharray:none;fill:none"/>
<circle cx="-66.5" cy="1.7763568394e-15" r="1.473" stroke="#000000" stroke-width="0.35 px" style="stroke-width:0.35;stroke-miterlimit:4;stroke-dasharray:none;fill:none"/>
<circle cx="66.5" cy="0.0" r="1.473" stroke="#000000" stroke-width="0.35 px" style="stroke-width:0.35;stroke-miterlimit:4;stroke-dasharray:none;fill:none"/>
</g>
</svg>